<svg width="15" height="15" viewBox="0 0 15 15" fill="none" xmlns="http://www.w3.org/2000/svg">
<path id="Vector" d="M5.95887 1.04242C6.02533 0.973991 6.10997 0.925999 6.20282 0.904111C6.34332 0.870991 6.48553 0.83698 6.62883 0.802708C7.04844 0.702357 7.47741 0.599766 7.90011 0.510735C8.01252 0.487059 8.12965 0.502811 8.2318 0.55534C9.01469 0.957896 9.8202 1.3753 10.4484 1.89435C10.492 1.93043 10.5292 1.97366 10.5584 2.02221C10.951 2.6753 11.4274 3.31856 11.9219 3.97766C11.9547 4.02134 11.9875 4.0651 12.0205 4.10895C12.4787 4.71913 12.9485 5.34478 13.348 5.97731C14.2002 7.32645 14.7936 8.7794 14.3482 10.4016C14.3024 10.5686 14.1734 10.7 14.0072 10.7488C13.9024 10.7797 13.7638 10.7931 13.6299 10.7937L13.6234 10.7938V10.7937C13.5674 10.7933 13.5112 10.7928 13.4548 10.7923C13.0509 10.7887 12.638 10.7851 12.2269 10.7976C12.1768 10.8817 12.102 10.9513 12.0088 10.9948C10.5339 11.6836 8.99288 12.0847 7.09705 11.6645C7.04945 11.654 7.00454 11.6368 6.9633 11.614C6.86341 12.6423 6.34091 13.4706 5.75314 14.2912C5.65925 14.4222 5.50791 14.5 5.34667 14.5H3.02357C2.8321 14.5 2.6605 14.3911 2.57685 14.2247C2.40997 14.3153 2.23704 14.3962 2.05849 14.4658C2.0006 14.4884 1.939 14.5 1.87687 14.5H1C0.723858 14.5 0.5 14.2761 0.5 14V7.35622C0.5 7.2047 0.56871 7.06135 0.686829 6.96645L0.808909 6.86836L0.809124 6.86819C1.64552 6.19693 2.57362 5.65244 3.6003 5.6895L3.60764 5.68976L3.60764 5.68982C4.21981 5.72093 4.77556 6.00381 5.24663 6.29212C5.43769 6.40905 5.62859 6.53592 5.80926 6.656C5.85395 6.6857 5.89802 6.71499 5.9413 6.7436C6.01033 6.78924 6.07787 6.8335 6.1442 6.87613C6.14816 6.87356 6.15217 6.87105 6.15621 6.8686C6.93856 6.39339 7.70917 6.1124 8.49311 6.21659L8.49807 6.21725L8.49807 6.21728C8.80081 6.26061 9.07449 6.37622 9.30748 6.49162C9.42137 6.54803 9.53375 6.60869 9.63761 6.66475L9.64735 6.67001C9.69663 6.6966 9.74413 6.72221 9.79061 6.74682C9.87572 6.64025 9.94774 6.48214 10.0007 6.2697C10.1564 5.58197 9.87515 4.79445 9.39198 4.07001C9.3662 4.03136 9.34622 3.98976 9.33222 3.94648C9.32283 3.95901 9.31281 3.97115 9.30218 3.98284C9.19852 4.0969 9.05 4.22737 8.86201 4.33188L5.95887 1.04242ZM5.95887 1.04242C5.72321 1.28507 5.57827 1.48805 5.46624 1.72712C5.39555 1.87799 5.33609 2.052 5.2739 2.23401C5.25073 2.3018 5.22719 2.37069 5.20255 2.43991C5.1673 2.53893 5.16415 2.64653 5.19355 2.74744C5.26834 3.00419 5.3454 3.25412 5.47427 3.5211C5.52535 3.62691 5.61094 3.70942 5.71409 3.7573M5.95887 1.04242L5.71409 3.7573M5.71409 3.7573C5.70338 3.85145 5.71946 3.94826 5.76291 4.03591C5.76739 4.04496 5.77442 4.06158 5.78977 4.10171C5.79124 4.10557 5.79283 4.10974 5.79452 4.11418C5.80718 4.14742 5.8256 4.19582 5.84634 4.24267C5.88827 4.33738 5.98285 4.53292 6.18954 4.65535C6.25143 4.69201 6.3205 4.71488 6.39204 4.7224C6.39849 4.72308 6.40499 4.72377 6.41154 4.72446C6.69901 4.7548 7.07319 4.79429 7.45305 4.64C7.47664 4.63041 7.49947 4.61904 7.52133 4.60598C7.55994 4.58291 7.59417 4.55711 7.62443 4.52944C7.67388 4.55101 7.72766 4.56488 7.78439 4.56944C8.19963 4.6028 8.57306 4.49252 8.86199 4.33189L5.71409 3.7573Z" fill="white" stroke="#F49627" stroke-linejoin="round"/>
</svg>
